# Blender v2.93.5 OBJ File: 'Cube.blend'
# www.blender.org
mtllib Cube.mtl
o Cube_Cube.001
v -1.494608 0.009735 0.875244
v -0.769315 1.540355 -0.188312
v -1.037657 -1.242705 -0.615591
v -0.312363 0.287915 -1.679147
v 0.312363 -0.287915 1.679147
v 1.037657 1.242705 0.615591
v 0.769315 -1.540355 0.188312
v 1.494608 -0.009735 -0.875244
vt 0.625000 0.000000
vt 0.375000 0.250000
vt 0.375000 0.000000
vt 0.625000 0.250000
vt 0.375000 0.500000
vt 0.625000 0.500000
vt 0.375000 0.750000
vt 0.625000 0.750000
vt 0.375000 1.000000
vt 0.125000 0.750000
vt 0.125000 0.500000
vt 0.875000 0.500000
vt 0.625000 1.000000
vt 0.875000 0.750000
vn -0.9035 0.1488 -0.4020
vn 0.2285 -0.6262 -0.7454
vn 0.9035 -0.1488 0.4020
vn -0.2285 0.6262 0.7454
vn -0.3626 -0.7653 0.5318
vn 0.3626 0.7653 -0.5318
usemtl None
s off
f 2/1/1 3/2/1 1/3/1
f 4/4/2 7/5/2 3/2/2
f 8/6/3 5/7/3 7/5/3
f 6/8/4 1/9/4 5/7/4
f 7/5/5 1/10/5 3/11/5
f 4/12/6 6/8/6 8/6/6
f 2/1/1 4/4/1 3/2/1
f 4/4/2 8/6/2 7/5/2
f 8/6/3 6/8/3 5/7/3
f 6/8/4 2/13/4 1/9/4
f 7/5/5 5/7/5 1/10/5
f 4/12/6 2/14/6 6/8/6
